# xmcd
# 
# Track frame offsets:
#     150
#     11982
#     30811
#     49050
#     66894
# 
# Disc length: 1109
# 
# Revision: 0
# Processed by: cddbd v1.5.2PL0 Copyright (c) Steve Scherf et al.
# Submitted via: fre:ac v1.0.17
# 
DISCID=37045305
DTITLE=Carniwhore - Fuel
DYEAR=2014
DGENRE=Heavy Metal
TTITLE0=Fuel
TTITLE1=Heavy Metal Saviour
TTITLE2=Hellrider
TTITLE3=Horsemen´s Arrival
TTITLE4=Gone Wild
EXTD=
EXTT0=
EXTT1=
EXTT2=
EXTT3=
EXTT4=
PLAYORDER=
